<svg width="415" height="448" viewBox="0 0 415 448" fill="none" xmlns="http://www.w3.org/2000/svg">
<path d="M207.336 401.772C92.9774 401.772 0 311.609 0 200.886C0 90.1633 92.9774 0 207.336 0C321.695 0 414.673 90.1633 414.673 200.886C414.673 311.609 321.695 401.772 207.336 401.772ZM207.336 44.65C118.409 44.65 46.0838 114.725 46.0838 200.886C46.0838 287.047 118.409 357.122 207.336 357.122C296.264 357.122 368.589 287.047 368.589 200.886C368.589 114.725 296.264 44.65 207.336 44.65Z" fill="#BBB0B5" fill-opacity="0.1"/>
<path fill-rule="evenodd" clip-rule="evenodd" d="M294.402 163.199C305.497 174.813 311.086 189.016 311.086 205.573C311.086 216.324 309.79 225.976 307.279 234.608C304.687 243.161 301.448 250.145 297.641 255.559C293.673 260.974 288.894 265.682 283.225 269.763C277.474 273.843 272.21 276.825 267.432 278.708C262.653 280.592 257.146 282.083 250.909 283.103C244.754 284.123 240.138 284.672 236.898 284.908L226.774 285.143L218.675 285.378L207.417 285.614L196.16 285.378L188.061 285.143L177.937 284.908C174.697 284.751 170.081 284.201 163.925 283.103C157.689 282.083 152.263 280.67 147.403 278.708C142.625 276.825 137.36 273.843 131.61 269.763C125.86 265.682 121.081 260.974 117.113 255.559C113.225 250.145 109.986 243.161 107.475 234.608C104.964 225.976 103.668 216.324 103.668 205.573C103.668 189.016 109.257 174.891 120.352 163.199C119.137 162.65 119.056 156.843 120.19 145.778C121.162 134.714 123.592 124.513 127.561 115.175C141.41 116.587 158.499 124.199 178.909 137.853C185.793 136.126 195.269 135.185 207.336 135.185C219.971 135.185 229.447 136.048 235.764 137.853C245.078 131.732 253.987 126.788 262.491 123.022C271.076 119.255 277.312 117.058 281.281 116.509L287.112 115.175C291.081 124.513 293.511 134.714 294.483 145.778C295.697 156.843 295.616 162.65 294.402 163.199ZM207.822 275.983C232.767 275.983 251.557 273.079 264.354 267.273C277.069 261.466 283.549 249.538 283.549 231.411C283.549 220.975 279.499 212.186 271.319 205.202C267.189 201.435 262.248 199.081 256.66 198.218C251.152 197.355 242.648 197.355 231.229 198.218C219.809 199.081 212.034 199.552 207.822 199.552C202.072 199.552 195.917 199.238 188.223 198.689L170.162 197.59C165.788 197.433 161.091 197.983 155.988 199.16C150.886 200.337 146.674 202.377 143.354 205.28C135.579 211.951 131.691 220.739 131.691 231.49C131.691 249.538 138.008 261.544 150.643 267.351C163.277 273.158 181.986 276.061 206.931 276.061L207.822 275.983Z" fill="#BBB0B5" fill-opacity="0.1"/>
<path d="M253.096 220.007C250.261 216.162 246.941 214.278 242.972 214.278C238.842 214.278 235.278 216.162 232.363 220.007C229.528 223.773 228.07 228.403 228.07 233.975C228.07 239.468 229.528 244.176 232.363 247.942C235.197 251.709 238.761 253.592 242.972 253.592C246.86 253.592 250.18 251.709 253.096 247.942C255.931 244.176 257.389 239.546 257.389 233.975C257.389 228.482 255.931 223.773 253.096 220.007Z" fill="#BBB0B5" fill-opacity="0.1"/>
<path d="M181.22 221.346C178.385 217.501 175.064 215.618 171.096 215.618C166.965 215.618 163.402 217.501 160.486 221.346C157.651 225.113 156.193 229.742 156.193 235.314C156.193 240.807 157.651 245.515 160.486 249.282C163.321 253.048 166.884 254.932 171.096 254.932C174.983 254.932 178.304 253.048 181.22 249.282C184.054 245.515 185.512 240.885 185.512 235.314C185.512 229.821 184.054 225.113 181.22 221.346Z" fill="#BBB0B5" fill-opacity="0.1"/>
<path d="M308.404 389.849C297.04 378.138 297.609 359.737 309.674 348.748C321.739 337.759 340.732 338.345 352.095 350.056C363.459 361.767 393.179 398.295 393.179 398.295C404.543 410.006 403.974 428.407 391.909 439.396C379.844 450.385 360.851 449.799 349.488 438.088L308.404 389.849Z" fill="#BBB0B5" fill-opacity="0.1"/>
</svg>
